<svg width="60" height="60" viewBox="0 0 60 60" fill="none" xmlns="http://www.w3.org/2000/svg">
<path d="M48.6575 4H18.9915C16.216 4 13.9657 5.90756 13.9657 8.26032V45.081H8.45625C7.65442 45.081 7 45.7358 7 46.5382V50.6329C7 52.3489 7.75527 53.9588 9.11842 55.1649C10.4091 56.2986 12.1189 56.9534 13.9321 57H45.8561C49.5446 56.9793 52.6771 54.2694 52.9612 50.9434L53 50.9098V7.90836C53.0052 5.75491 51.0527 4 48.6575 4ZM13.953 55.763C12.4425 55.7242 11.012 55.1806 9.94117 54.2333C8.84965 53.2653 8.23919 51.9867 8.23919 50.6356L8.2366 46.5383C8.2366 46.4193 8.32972 46.3261 8.4487 46.3261H38.4974C38.6164 46.3261 38.7095 46.4193 38.7095 46.5383V50.633C38.7095 52.349 39.4648 53.9589 40.8279 55.1651C41.0737 55.3825 41.3323 55.5818 41.6039 55.7604L13.953 55.763ZM45.8565 55.763H45.6521C44.1416 55.7164 42.7189 55.1729 41.6584 54.2333C40.5669 53.2653 39.9565 51.9867 39.9565 50.6356V46.5383C39.9565 45.736 39.302 45.0811 38.5002 45.0811H15.2023V8.26045C15.2023 6.5962 16.8966 5.24509 18.9839 5.24509H48.6499C50.3648 5.24509 51.7564 6.4383 51.7564 7.90841V50.395C51.7564 50.4545 51.7564 50.5089 51.7487 50.6124C51.6297 53.4362 48.9811 55.7501 45.8565 55.763Z" fill="white" stroke="white" stroke-width="0.7"/>
</svg>
